<?xml version="1.0" standalone="no"?>
<svg version="1.0" xmlns="http://www.w3.org/2000/svg"
     width="256.000000pt" height="256.000000pt" viewBox="0 0 256.000000 256.000000"
     preserveAspectRatio="xMidYMid meet">
    <metadata>
        Created by potrace 1.10, written by Peter Selinger 2001-2011
    </metadata>
    <g transform="translate(0.000000,256.000000) scale(0.100000,-0.100000)"
       fill="#ffffff" stroke="none">
        <path d="M224 2510 c135 -480 173 -889 120 -1285 -8 -60 -21 -138 -29 -172
l-14 -62 74 -106 c41 -59 145 -220 231 -358 85 -139 163 -262 172 -275 21 -29
396 -235 399 -219 2 7 -32 192 -75 412 l-78 400 -99 38 c-55 21 -141 53 -191
73 l-91 34 -41 143 c-55 189 -72 260 -66 266 3 3 42 -13 87 -36 104 -54 498
-281 515 -298 8 -7 28 -70 46 -141 18 -71 46 -154 62 -186 l30 -56 31 56 c17
33 44 114 63 190 l33 133 134 79 c181 108 433 246 462 255 23 7 23 6 16 -31
-9 -51 -93 -343 -105 -363 -4 -9 -91 -47 -192 -85 -101 -38 -184 -70 -186 -71
-4 -3 -161 -820 -158 -823 2 -1 90 46 197 104 l195 106 58 97 c91 149 342 539
387 603 l41 56 -16 79 c-60 288 -62 667 -5 1013 19 112 83 383 104 435 7 18 6
18 -7 5 -9 -8 -239 -301 -513 -650 -274 -349 -507 -645 -519 -658 l-22 -22
-529 672 c-290 370 -525 662 -521 648z"/>
    </g>
</svg>
